**ABCDEFGHIJKLMNOPQRSTUVWXYZabcdefghijklmnopqrstuvwxyz**************************
**PARASOLID !"#$%&'()*+,-./:;<=>?@[\]^_`{|}~0123456789**************************
**PART1;
MC=AMD64;
MC_MODEL=AMD64 Family 16 Model 6 Stepping 3, AuthenticAMD;
MC_ID=unknown;
OS=Windows_NT;
OS_RELEASE=unknown;
FRU=Parasolid Version 30.0, build 226,  7-26-2017;
APPL=SOLIDWORKS 2018-2017278;
SITE=;
USER=unknown;
FORMAT=text;
GUISE=transmit;
KEY=makeProjectedPlanarWire;
FILE=makeProjectedPlanarWire.x_t;
DATE=Mon Oct  1 11:15:51 2018;
**PART2;
SCH=SCH_3000226_30000;
USFLD_SIZE=0;
**PART3;
**END_OF_HEADER*****************************************************************
T51 : TRANSMIT FILE created by modeller version 300022623 SCH_3000226_30000_1300
6205 0 12 33 CCCCCCI4 mesh1006 0 I8 polyline1008 0 CCCCCCCDI5 owner1040 0 CCCCCC
I13 boundary_mesh1006 0 I17 boundary_polyline1008 0 CCCA16 index_map_offset0 0 1
 dA9 index_map82 0 A17 node_id_index_map82 0 A20 schema_embedding_map82 0 A5 chi
ld12 0 A14 lowest_node_id0 0 1 dZ1 74 0 2 0 0 0 0 0 0 1e3 1e-8 0 3 0 1 0 3 1 4 5
 6 7 0 0 8 9 10 0 0 0 0 0 0 70 11 CI9 list_type0 0 1 uI10 notransmit0 0 1 lCCCDC
CDI12 finger_index0 0 1 dI12 finger_block1012 0 CZ2 0 4 T1 0 0 1 20 1 11 11 13 2
55 4 71 0 1 0 12 0 0 8 12 50 255 5 2 0 12 0 0 0 +-.01246 0 0 1 0 0 0 0 -1 30 255
 6 27 0 9 13 0 0 +-.01246 -.0025 0 0 0 1 29 255 7 63 0 10 14 0 -.01246 -.0025 .0
0777 19 8 CCCCCCCA5 owner12 0 Z8 70 0 1 0 0 4 V0 16 255 9 26 0 ?15 0 16 6 0 0 1
 18 255 10 61 0 17 0 18 7 ?1 17 255 17 0 0 0 0 10 19 20 0 15 -18 18 58 0 21 10 2
2 14 ?1 17 21 0 23 15 24 18 25 16 0 26 -18 22 55 0 24 18 27 28 ?1 29 14 60 0 18
 28 7 -.01246 -.0025 -.00523 29 28 57 0 22 29 14 -.01246 .0025 -.00523 29 29 54
 0 27 30 28 -.01246 .0025 .00777 18 27 52 0 19 22 31 29 ?1 29 30 51 0 31 32 29 -
.01246 .0015 -528756555323012e-19 18 31 49 0 33 27 34 30 ?1 29 32 48 0 34 35 30
 -.01246 .0015 -.00423 18 34 46 0 36 31 37 32 ?1 29 35 45 0 37 38 32 -.01246 -.0
015 -.00423 18 37 43 0 39 34 40 35 ?1 29 38 42 0 40 41 35 -.01246 -.0015 -528756
555322899e-19 18 40 40 0 42 37 43 38 ?1 29 41 39 0 43 44 38 -.01246 -.0015 .0025
9287565553229 18 43 37 0 45 40 46 41 ?1 29 44 36 0 46 47 41 -.01246 -.0015 .0067
7 18 46 34 0 48 43 49 44 ?1 29 47 33 0 49 50 44 -.01246 .0015 .00677 18 49 31 0
 51 46 52 47 ?1 29 50 30 0 52 0 47 -.01246 .0015 .0025928756555323 18 52 28 0 53
 49 0 50 ?1 17 53 0 54 51 55 52 33 56 0 57 -15 255 54 5 0 53 12 23 17 51 0 54 48
 53 49 57 58 0 59 +17 55 0 54 53 36 31 60 61 0 0 +17 33 0 0 0 0 31 53 56 0 55 +1
6 56 7 0 ?33 58 0 62 63 63 1 17 57 0 0 0 0 52 51 58 0 0 -16 58 9 0 ?51 64 56 65
 61 61 1 16 64 11 0 ?48 66 58 67 0 0 1 30 65 10 0 58 62 67 0 +-.01246 .0015 0 0
 0 1 16 61 19 0 ?55 20 68 65 58 58 1 16 20 20 0 ?19 69 61 70 0 0 1 16 68 17 0 ?3
6 61 71 72 0 0 1 17 36 0 54 55 39 34 73 68 0 60 +16 71 16 0 ?39 68 63 74 66 66 1
 30 72 18 0 68 74 70 0 +-.01246 0 -.00423 0 1 0 30 74 14 0 66 67 72 0 +-.01246 -
.0015 0 0 0 -1 30 70 21 0 20 72 75 0 +-.01246 0 .00777 0 1 0 30 75 23 0 69 70 13
 0 +-.01246 .0025 0 0 0 1 16 69 22 0 ?76 16 20 75 0 0 1 30 13 25 0 16 75 6 0 +-.
01246 0 -.00523 0 1 0 16 16 24 0 ?25 9 69 13 0 0 1 17 25 0 0 0 0 22 21 16 0 0 +1
7 76 0 0 0 0 27 24 69 0 0 +17 24 0 23 21 19 22 76 69 0 25 -15 23 6 0 19 12 0 17
 19 0 23 24 15 27 17 20 0 76 +17 15 0 23 19 21 10 26 9 0 0 +17 26 0 0 0 0 18 15
 9 0 0 -14 255 12 1 77 ?0 0 54 4 5 -0 0 0 0 4 81 255 1 77 74 78 12 0 0 0 0 79 80
 255 1 78 80 81 9000 1 1 1 1 1 1 1 1 0 FFFFTFTFFFFFFF1 82 255 1 79 1903624440 79
 255 14 81 SWEntUnchanged16 66 13 0 ?45 63 64 74 71 71 1 30 67 12 0 64 65 74 0 +
-.01246 0 .00677 0 -1 0 17 45 0 54 42 48 43 82 66 0 83 +16 63 15 0 ?83 71 66 62
 56 56 1 17 83 0 0 0 0 43 42 63 0 0 +31 255 62 8 0 56 0 65 0 +-.01246 0 .00127 -
1 0 0 0 0 1 .002 17 42 0 54 39 45 40 83 63 0 84 -17 39 0 54 36 42 37 84 71 0 73
 +17 84 0 0 0 0 40 39 71 0 0 -17 73 0 0 0 0 37 36 68 0 0 -17 48 0 54 45 51 46 59
 64 0 82 +17 82 0 0 0 0 46 45 66 0 0 -17 59 0 0 0 0 49 48 64 0 0 -17 60 0 0 0 0
 34 55 61 0 0 -74 4 CI16 index_map_offset0 0 1 dCCZ20 11 1 0 0 77 0 0 0 0 0 0 0
 0 0 0 0 0 0 0 0 0 0 0 0 1 0 
